<mxfile host="app.diagrams.net" modified="2022-11-01T19:25:13.140Z" agent="5.0 (Windows NT 10.0; Win64; x64) AppleWebKit/537.36 (KHTML, like Gecko) Chrome/106.0.0.0 Safari/537.36" etag="N2ZFxzyyHI77hObS7BIw" version="20.5.1" type="github">
  <diagram id="5lohvM-z_Co4XCW0OpP_" name="Página-1">
    <mxGraphModel dx="976" dy="587" grid="1" gridSize="10" guides="1" tooltips="1" connect="1" arrows="1" fold="1" page="1" pageScale="1" pageWidth="827" pageHeight="1169" math="0" shadow="0">
      <root>
        <mxCell id="0" />
        <mxCell id="1" parent="0" />
        <mxCell id="WgYAtT2_XM5ORelI5UAL-1" value="Trenes" style="whiteSpace=wrap;html=1;align=center;" vertex="1" parent="1">
          <mxGeometry x="220" y="90" width="100" height="40" as="geometry" />
        </mxCell>
        <mxCell id="WgYAtT2_XM5ORelI5UAL-2" value="Líneas" style="whiteSpace=wrap;html=1;align=center;" vertex="1" parent="1">
          <mxGeometry x="430" y="90" width="100" height="40" as="geometry" />
        </mxCell>
        <mxCell id="WgYAtT2_XM5ORelI5UAL-3" value="Estaciones" style="shape=ext;margin=3;double=1;whiteSpace=wrap;html=1;align=center;" vertex="1" parent="1">
          <mxGeometry x="430" y="240" width="100" height="40" as="geometry" />
        </mxCell>
        <mxCell id="WgYAtT2_XM5ORelI5UAL-4" value="Ubicaciones" style="shape=ext;margin=3;double=1;whiteSpace=wrap;html=1;align=center;" vertex="1" parent="1">
          <mxGeometry x="660" y="240" width="100" height="40" as="geometry" />
        </mxCell>
        <mxCell id="WgYAtT2_XM5ORelI5UAL-8" value="" style="endArrow=none;html=1;rounded=0;entryX=0;entryY=0.5;entryDx=0;entryDy=0;startArrow=none;" edge="1" parent="1" source="WgYAtT2_XM5ORelI5UAL-14" target="WgYAtT2_XM5ORelI5UAL-2">
          <mxGeometry relative="1" as="geometry">
            <mxPoint x="320" y="109.5" as="sourcePoint" />
            <mxPoint x="420" y="110" as="targetPoint" />
          </mxGeometry>
        </mxCell>
        <mxCell id="WgYAtT2_XM5ORelI5UAL-10" value="" style="endArrow=none;html=1;rounded=0;" edge="1" parent="1">
          <mxGeometry relative="1" as="geometry">
            <mxPoint x="530" y="260" as="sourcePoint" />
            <mxPoint x="660" y="260" as="targetPoint" />
          </mxGeometry>
        </mxCell>
        <mxCell id="WgYAtT2_XM5ORelI5UAL-11" value="" style="endArrow=none;html=1;rounded=0;exitX=0.5;exitY=0;exitDx=0;exitDy=0;entryX=0.5;entryY=1;entryDx=0;entryDy=0;" edge="1" parent="1" source="WgYAtT2_XM5ORelI5UAL-3" target="WgYAtT2_XM5ORelI5UAL-2">
          <mxGeometry relative="1" as="geometry">
            <mxPoint x="450" y="170" as="sourcePoint" />
            <mxPoint x="610" y="170" as="targetPoint" />
          </mxGeometry>
        </mxCell>
        <mxCell id="WgYAtT2_XM5ORelI5UAL-12" value="Conductores" style="whiteSpace=wrap;html=1;align=center;" vertex="1" parent="1">
          <mxGeometry x="220" y="220" width="100" height="40" as="geometry" />
        </mxCell>
        <mxCell id="WgYAtT2_XM5ORelI5UAL-13" value="está" style="shape=rhombus;perimeter=rhombusPerimeter;whiteSpace=wrap;html=1;align=center;" vertex="1" parent="1">
          <mxGeometry x="560" y="235" width="70" height="50" as="geometry" />
        </mxCell>
        <mxCell id="WgYAtT2_XM5ORelI5UAL-14" value="está" style="shape=rhombus;perimeter=rhombusPerimeter;whiteSpace=wrap;html=1;align=center;" vertex="1" parent="1">
          <mxGeometry x="340" y="85" width="70" height="50" as="geometry" />
        </mxCell>
        <mxCell id="WgYAtT2_XM5ORelI5UAL-15" value="" style="endArrow=none;html=1;rounded=0;entryX=0;entryY=0.5;entryDx=0;entryDy=0;" edge="1" parent="1" target="WgYAtT2_XM5ORelI5UAL-14">
          <mxGeometry relative="1" as="geometry">
            <mxPoint x="320" y="109.5" as="sourcePoint" />
            <mxPoint x="430" y="110" as="targetPoint" />
          </mxGeometry>
        </mxCell>
        <mxCell id="WgYAtT2_XM5ORelI5UAL-16" value="tiene" style="shape=rhombus;perimeter=rhombusPerimeter;whiteSpace=wrap;html=1;align=center;" vertex="1" parent="1">
          <mxGeometry x="445" y="160" width="70" height="50" as="geometry" />
        </mxCell>
        <mxCell id="WgYAtT2_XM5ORelI5UAL-17" value="N:1" style="text;strokeColor=none;fillColor=none;spacingLeft=4;spacingRight=4;overflow=hidden;rotatable=0;points=[[0,0.5],[1,0.5]];portConstraint=eastwest;fontSize=12;fontStyle=1" vertex="1" parent="1">
          <mxGeometry x="380" y="70" width="40" height="30" as="geometry" />
        </mxCell>
        <mxCell id="WgYAtT2_XM5ORelI5UAL-18" value="1:1" style="text;strokeColor=none;fillColor=none;spacingLeft=4;spacingRight=4;overflow=hidden;rotatable=0;points=[[0,0.5],[1,0.5]];portConstraint=eastwest;fontSize=12;fontStyle=1" vertex="1" parent="1">
          <mxGeometry x="600" y="220" width="40" height="30" as="geometry" />
        </mxCell>
        <mxCell id="WgYAtT2_XM5ORelI5UAL-19" value="N:N" style="text;strokeColor=none;fillColor=none;spacingLeft=4;spacingRight=4;overflow=hidden;rotatable=0;points=[[0,0.5],[1,0.5]];portConstraint=eastwest;fontSize=12;fontStyle=1" vertex="1" parent="1">
          <mxGeometry x="490" y="150" width="40" height="30" as="geometry" />
        </mxCell>
      </root>
    </mxGraphModel>
  </diagram>
</mxfile>
